<mxfile host="app.diagrams.net" modified="2021-05-13T16:26:59.270Z" agent="5.0 (Windows NT 10.0; Win64; x64) AppleWebKit/537.36 (KHTML, like Gecko) Chrome/90.0.4430.212 Safari/537.36" etag="erk72CFE8Qt-LZgKFn1g" version="14.6.13" type="github">
  <diagram id="NL5PwAvorvllwXM2dLGq" name="Page-1">
    <mxGraphModel dx="1355" dy="248" grid="1" gridSize="10" guides="1" tooltips="1" connect="1" arrows="1" fold="1" page="1" pageScale="1" pageWidth="827" pageHeight="1169" math="0" shadow="0">
      <root>
        <mxCell id="0" />
        <mxCell id="1" parent="0" />
        <mxCell id="5BYeUp9yFWM4JVloYDsu-1" value="" style="rounded=0;whiteSpace=wrap;html=1;fillColor=#FFFFFF;" vertex="1" parent="1">
          <mxGeometry x="-100" y="40" width="1020" height="680" as="geometry" />
        </mxCell>
        <mxCell id="5BYeUp9yFWM4JVloYDsu-6" value="" style="rounded=0;whiteSpace=wrap;html=1;fillColor=#FFE6CC;" vertex="1" parent="1">
          <mxGeometry x="60" y="80" width="500" height="570" as="geometry" />
        </mxCell>
        <mxCell id="5BYeUp9yFWM4JVloYDsu-22" value="Application Web Admin" style="text;html=1;strokeColor=none;fillColor=none;align=center;verticalAlign=middle;whiteSpace=wrap;rounded=0;" vertex="1" parent="1">
          <mxGeometry x="60" y="80" width="140" height="20" as="geometry" />
        </mxCell>
        <mxCell id="5BYeUp9yFWM4JVloYDsu-23" value="Login" style="ellipse;whiteSpace=wrap;html=1;fillColor=#FFFFFF;" vertex="1" parent="1">
          <mxGeometry x="130" y="130" width="160" height="70" as="geometry" />
        </mxCell>
        <mxCell id="5BYeUp9yFWM4JVloYDsu-26" style="edgeStyle=orthogonalEdgeStyle;rounded=0;orthogonalLoop=1;jettySize=auto;html=1;entryX=0;entryY=0.5;entryDx=0;entryDy=0;" edge="1" parent="1" source="5BYeUp9yFWM4JVloYDsu-25" target="5BYeUp9yFWM4JVloYDsu-23">
          <mxGeometry relative="1" as="geometry" />
        </mxCell>
        <mxCell id="5BYeUp9yFWM4JVloYDsu-25" value="Admin" style="shape=umlActor;verticalLabelPosition=bottom;verticalAlign=top;html=1;outlineConnect=0;fillColor=#FFFFFF;" vertex="1" parent="1">
          <mxGeometry x="-60" y="330" width="30" height="60" as="geometry" />
        </mxCell>
        <mxCell id="5BYeUp9yFWM4JVloYDsu-27" value="Donne Token" style="ellipse;whiteSpace=wrap;html=1;fillColor=#FFFFFF;" vertex="1" parent="1">
          <mxGeometry x="420" y="125" width="120" height="80" as="geometry" />
        </mxCell>
        <mxCell id="5BYeUp9yFWM4JVloYDsu-29" style="edgeStyle=orthogonalEdgeStyle;rounded=0;orthogonalLoop=1;jettySize=auto;html=1;entryX=1;entryY=0.5;entryDx=0;entryDy=0;" edge="1" parent="1" source="5BYeUp9yFWM4JVloYDsu-28" target="5BYeUp9yFWM4JVloYDsu-27">
          <mxGeometry relative="1" as="geometry" />
        </mxCell>
        <mxCell id="5BYeUp9yFWM4JVloYDsu-28" value="API REST" style="shape=umlActor;verticalLabelPosition=bottom;verticalAlign=top;html=1;outlineConnect=0;fillColor=#FFFFFF;" vertex="1" parent="1">
          <mxGeometry x="840" y="335" width="30" height="60" as="geometry" />
        </mxCell>
        <mxCell id="5BYeUp9yFWM4JVloYDsu-31" value="&amp;lt;&amp;lt;extend&amp;gt;&amp;gt;" style="html=1;verticalAlign=bottom;endArrow=open;dashed=1;endSize=8;entryX=1;entryY=1;entryDx=0;entryDy=0;exitX=0;exitY=1;exitDx=0;exitDy=0;" edge="1" parent="1" source="5BYeUp9yFWM4JVloYDsu-27">
          <mxGeometry x="0.0265" y="2" relative="1" as="geometry">
            <mxPoint x="478.57359312880726" y="228.28427124746167" as="sourcePoint" />
            <mxPoint x="267.5685424949238" y="189.74873734152914" as="targetPoint" />
            <mxPoint as="offset" />
          </mxGeometry>
        </mxCell>
        <mxCell id="5BYeUp9yFWM4JVloYDsu-32" value="" style="endArrow=open;endFill=1;endSize=12;html=1;exitX=1;exitY=0;exitDx=0;exitDy=0;entryX=0;entryY=0;entryDx=0;entryDy=0;" edge="1" parent="1" source="5BYeUp9yFWM4JVloYDsu-23" target="5BYeUp9yFWM4JVloYDsu-27">
          <mxGeometry width="160" relative="1" as="geometry">
            <mxPoint x="270" y="300" as="sourcePoint" />
            <mxPoint x="430" y="300" as="targetPoint" />
          </mxGeometry>
        </mxCell>
        <mxCell id="5BYeUp9yFWM4JVloYDsu-34" value="false" style="html=1;verticalAlign=bottom;endArrow=block;exitX=0.5;exitY=0;exitDx=0;exitDy=0;entryX=0.05;entryY=0.314;entryDx=0;entryDy=0;entryPerimeter=0;" edge="1" parent="1" source="5BYeUp9yFWM4JVloYDsu-23" target="5BYeUp9yFWM4JVloYDsu-23">
          <mxGeometry width="80" relative="1" as="geometry">
            <mxPoint x="210" y="200" as="sourcePoint" />
            <mxPoint x="135" y="160" as="targetPoint" />
            <Array as="points">
              <mxPoint x="210" y="120" />
              <mxPoint x="138" y="120" />
            </Array>
          </mxGeometry>
        </mxCell>
        <mxCell id="5BYeUp9yFWM4JVloYDsu-38" value="{si le logo admin et bon}" style="text;html=1;strokeColor=none;fillColor=none;align=center;verticalAlign=middle;whiteSpace=wrap;rounded=0;" vertex="1" parent="1">
          <mxGeometry x="260" y="190" width="180" height="20" as="geometry" />
        </mxCell>
        <mxCell id="5BYeUp9yFWM4JVloYDsu-39" value="Tableau de bord&lt;br&gt;avec Nav&amp;nbsp;" style="ellipse;whiteSpace=wrap;html=1;fillColor=#FFFFFF;" vertex="1" parent="1">
          <mxGeometry x="125" y="250" width="170" height="80" as="geometry" />
        </mxCell>
        <mxCell id="5BYeUp9yFWM4JVloYDsu-40" value="return" style="html=1;verticalAlign=bottom;endArrow=open;dashed=1;endSize=8;entryX=0.5;entryY=0;entryDx=0;entryDy=0;exitX=0.5;exitY=1;exitDx=0;exitDy=0;" edge="1" parent="1" source="5BYeUp9yFWM4JVloYDsu-23" target="5BYeUp9yFWM4JVloYDsu-39">
          <mxGeometry relative="1" as="geometry">
            <mxPoint x="440" y="400" as="sourcePoint" />
            <mxPoint x="360" y="400" as="targetPoint" />
          </mxGeometry>
        </mxCell>
      </root>
    </mxGraphModel>
  </diagram>
</mxfile>
